<?xml version="1.0" encoding="UTF-8" standalone="no"?>
<!-- Created with Inkscape (http://www.inkscape.org/) -->

<svg
   width="225.62476mm"
   height="223.08086mm"
   viewBox="0 0 225.62476 223.08086"
   version="1.1"
   id="svg1"
   xml:space="preserve"
   inkscape:version="1.4.3 (0d15f75, 2025-12-25)"
   sodipodi:docname="clify.svg"
   xmlns:inkscape="http://www.inkscape.org/namespaces/inkscape"
   xmlns:sodipodi="http://sodipodi.sourceforge.net/DTD/sodipodi-0.dtd"
   xmlns="http://www.w3.org/2000/svg"
   xmlns:svg="http://www.w3.org/2000/svg"><sodipodi:namedview
     id="namedview1"
     pagecolor="#ffffff"
     bordercolor="#000000"
     borderopacity="0.25"
     inkscape:showpageshadow="2"
     inkscape:pageopacity="0.0"
     inkscape:pagecheckerboard="0"
     inkscape:deskcolor="#d1d1d1"
     inkscape:document-units="mm"
     inkscape:zoom="0.11096484"
     inkscape:cx="603.79486"
     inkscape:cy="40.553386"
     inkscape:window-width="1338"
     inkscape:window-height="552"
     inkscape:window-x="0"
     inkscape:window-y="33"
     inkscape:window-maximized="0"
     inkscape:current-layer="layer1" /><defs
     id="defs1" /><g
     inkscape:label="Layer 1"
     inkscape:groupmode="layer"
     id="layer1"
     transform="translate(273.28613,-19.871153)"><rect
       style="fill:#1a1a1a;stroke-width:0.460302"
       id="rect5"
       width="225.62476"
       height="223.08086"
       x="-273.28613"
       y="19.871153"
       rx="21.294329"
       ry="21.054235"
       inkscape:export-filename="clify.png"
       inkscape:export-xdpi="28.819532"
       inkscape:export-ydpi="28.819532" /><path
       style="fill:#ff0000;stroke-width:0.282083"
       d="m -176.98905,150.07538 c 0,-0.041 -0.14916,-0.0747 -0.33146,-0.0747 -0.18229,0 -0.3522,-0.0336 -0.37758,-0.0747 -0.0254,-0.041 -0.11348,-0.0746 -0.19581,-0.0746 -0.25557,0 -0.90432,-0.31208 -1.34559,-0.6473 -0.75915,-0.5767 -1.31169,-1.54424 -1.38565,-2.42633 -0.0299,-0.35734 -0.0727,-0.50881 -0.14378,-0.50881 -0.0847,0 -0.10108,-2.19341 -0.10108,-13.50886 0,-11.31543 0.0164,-13.50884 0.10108,-13.50884 0.0713,0 0.11405,-0.15473 0.14513,-0.52501 0.0822,-0.97957 0.82694,-2.12294 1.72459,-2.64746 0.52483,-0.30667 1.29317,-0.55856 1.70491,-0.55893 0.19498,-1.8e-4 0.3545,-0.034 0.3545,-0.075 0,-0.0495 4.20442,-0.0746 12.46397,-0.0746 8.25956,0 12.46397,0.0252 12.46397,0.0746 0,0.041 0.15968,0.0746 0.35484,0.0746 0.38702,0 1.20901,0.26947 1.70037,0.55742 0.43861,0.25704 1.07814,0.97533 1.33423,1.49852 0.42179,0.86173 0.41692,0.8055 0.41692,4.82229 0,2.04592 0.0252,3.71987 0.0562,3.71987 0.0309,0 2.44057,-2.38458 5.35484,-5.29906 5.14672,-5.1471 5.30674,-5.29904 5.58086,-5.29904 0.42492,0 1.314,0.45251 1.68957,0.85995 0.42456,0.4606 0.75264,1.16742 0.75273,1.62163 3e-5,0.26535 0.0282,0.35453 0.11193,0.35453 0.0991,0 0.11193,1.64936 0.11193,14.39647 0,12.72802 -0.0127,14.40146 -0.11193,14.43944 -0.0754,0.0289 -0.11193,0.14734 -0.11193,0.3625 -9e-5,0.41735 -0.34492,1.14424 -0.75273,1.58666 -0.36591,0.39696 -1.26542,0.85995 -1.67072,0.85995 -0.14485,0 -0.26335,0.0258 -0.26335,0.0571 0,0.0314 -2.37586,-2.31952 -5.27968,-5.22441 -2.90381,-2.9049 -5.32081,-5.28162 -5.37108,-5.28162 -0.0706,0 -0.0963,0.86208 -0.11264,3.79496 -0.0154,2.7508 -0.0451,3.82376 -0.10826,3.89965 -0.0478,0.0575 -0.0815,0.12152 -0.0747,0.14202 0.007,0.0206 -0.0813,0.24595 -0.19586,0.50096 -0.36718,0.8182 -1.2703,1.62782 -2.1054,1.88747 -0.1642,0.051 -0.35686,0.12222 -0.42813,0.1583 -0.0713,0.036 -0.2644,0.0656 -0.42916,0.0656 -0.16475,0 -0.29955,0.0335 -0.29955,0.0747 0,0.0495 -4.25416,0.0746 -12.61324,0.0746 -8.35907,0 -12.61323,-0.0252 -12.61323,-0.0746 z"
       id="path3" /><path
       style="fill:#ffffff"
       d="m -221.76856,184.92394 c -0.18116,-0.21829 -0.62665,-0.39688 -0.98998,-0.39688 -0.87332,0 -3.58331,-1.66291 -4.20585,-2.5808 -0.88064,-1.29846 -1.40061,-2.56093 -1.40978,-3.42286 -0.005,-0.46435 -0.12804,-0.91786 -0.27356,-1.0078 -0.17472,-0.10798 -0.26458,-15.51976 -0.26458,-45.37604 0,-29.85628 0.0899,-45.268055 0.26458,-45.376035 0.14552,-0.0899 0.26458,-0.52022 0.26458,-0.95618 0,-2.54528 3.49818,-6.05528 6.03489,-6.05528 0.5927,0 1.15122,-0.11906 1.24116,-0.26459 0.19314,-0.31252 48.55207,-0.3784 48.54923,-0.0661 -9.9e-4,0.10914 -0.44748,0.49005 -0.99219,0.84646 -0.54471,0.35642 -1.51824,1.07079 -2.16341,1.5875 -0.64517,0.51671 -1.32495,0.99901 -1.51063,1.07177 -0.18568,0.0728 -1.34572,1.05502 -2.57788,2.18281 -1.23216,1.12779 -2.34696,2.05052 -2.47734,2.05052 -0.26982,0 -3.77386,3.68164 -5.75487,6.04655 l -1.32291,1.57929 -11.84011,0.0235 -11.8401,0.0235 v 37.306915 37.30691 l 51.5276,-0.0668 51.52761,-0.0668 0.0688,-11.81004 0.0689,-11.81005 2.21887,-2.01443 c 1.22037,-1.10794 2.30951,-2.01444 2.42029,-2.01444 0.11079,0 1.12446,-0.83344 2.25259,-1.85208 1.12813,-1.01865 2.12785,-1.85209 2.2216,-1.85209 0.15635,0 2.095679,-1.57762 5.210586,-4.23875 0.677855,-0.5791 1.302933,-1.05291 1.389062,-1.05291 0.258577,0 0.178632,45.73746 -0.08082,46.23952 -0.130582,0.25269 -0.450283,0.97424 -0.710447,1.60344 -0.822753,1.98982 -3.555159,4.00745 -5.435881,4.01389 -0.23684,8.2e-4 -0.57884,0.18007 -0.76,0.39836 -0.29101,0.35064 -7.31834,0.39687 -60.32501,0.39687 -53.00666,0 -60.03399,-0.0462 -60.325,-0.39687 z m 33.08133,-42.38387 c -0.005,-0.90092 0.0925,-1.70041 0.21589,-1.77666 0.12337,-0.0762 0.30191,-1.23186 0.39675,-2.56804 0.0948,-1.33618 0.27985,-2.56074 0.41112,-2.72126 0.13128,-0.16051 0.32439,-1.12528 0.42914,-2.14393 0.10475,-1.01864 0.28391,-1.97114 0.39814,-2.11666 0.11423,-0.14552 0.29338,-0.8599 0.39812,-1.5875 0.10473,-0.72761 0.27821,-1.44198 0.38551,-1.5875 0.1073,-0.14552 0.27311,-0.7758 0.36848,-1.40062 0.16629,-1.08958 0.25309,-1.3411 0.89778,-2.60171 0.15828,-0.3095 0.36896,-0.99543 0.46817,-1.52427 0.0992,-0.52885 0.27908,-1.02253 0.39969,-1.09708 0.12062,-0.0745 0.29923,-0.66854 0.39692,-1.31999 0.0977,-0.65145 0.28317,-1.18446 0.41217,-1.18446 0.12899,0 0.23454,-0.239 0.23454,-0.5311 0,-0.29211 0.28536,-1.09578 0.63414,-1.78594 0.34878,-0.69016 0.91981,-1.90968 1.26896,-2.71004 0.63716,-1.46059 2.57634,-5.23402 3.19178,-6.21086 0.18099,-0.28728 0.77556,-1.21843 1.32126,-2.06923 0.54571,-0.85081 0.99219,-1.62013 0.99219,-1.70961 0,-0.0895 0.47625,-0.72751 1.05833,-1.41783 0.58209,-0.69031 1.05875,-1.35282 1.05925,-1.47223 4.9e-4,-0.11941 0.83393,-1.129285 1.85208,-2.244165 1.01815,-1.11488 1.85117,-2.13715 1.85117,-2.2717 0,-0.42365 7.27236,-6.94926 8.00543,-7.1834 0.18092,-0.0578 0.72913,-0.45271 1.21824,-0.87762 0.48911,-0.4249 1.14395,-0.88875 1.45521,-1.03077 0.75919,-0.34641 1.62093,-0.85301 2.05906,-1.21049 0.53663,-0.43786 6.7187,-3.52293 7.05948,-3.52293 0.16215,0 0.70618,-0.23104 1.20895,-0.51343 0.50277,-0.28238 1.34114,-0.59354 1.86305,-0.69145 0.52192,-0.0979 1.00993,-0.27671 1.08447,-0.39732 0.0745,-0.12062 0.69831,-0.30073 1.38614,-0.40026 0.68783,-0.0995 1.36967,-0.27385 1.51519,-0.3874 0.14552,-0.11355 0.83159,-0.29086 1.52461,-0.39403 0.69301,-0.10317 1.32512,-0.29291 1.40467,-0.42164 0.0796,-0.12872 0.54732,-0.23405 1.03947,-0.23405 0.49215,0 0.96154,-0.10796 1.04309,-0.23992 0.0816,-0.13195 1.30897,-0.31791 2.72759,-0.41323 1.41863,-0.0953 2.81744,-0.27796 3.10849,-0.40586 0.29104,-0.1279 2.4044,-0.31166 4.69635,-0.40837 l 4.16719,-0.17583 V 65.304414 c 0,-6.751398 0.0904,-12.275269 0.20094,-12.275269 0.11051,0 0.34965,0.238125 0.53141,0.529167 0.18175,0.291042 0.46545,0.529167 0.63043,0.529167 0.16498,0 0.9271,0.535781 1.6936,1.190625 0.7665,0.654844 1.47473,1.190625 1.57383,1.190625 0.0991,0 0.80732,0.535781 1.57382,1.190625 0.76651,0.654844 1.47532,1.190625 1.57515,1.190625 0.0998,0 0.88081,0.565547 1.73552,1.256771 0.85471,0.691224 1.98781,1.554427 2.518,1.918229 1.15621,0.793366 1.80832,1.29386 3.08348,2.366585 0.52853,0.444629 1.08416,0.808415 1.23472,0.808415 0.15056,0 0.31344,0.105457 0.36195,0.234348 0.10218,0.271532 2.52457,2.146902 2.77312,2.146902 0.0917,0 0.91268,0.654844 1.82431,1.455209 0.91162,0.800364 1.746,1.455208 1.854172,1.455208 0.26305,0 2.57631,1.875439 2.844006,2.305733 0.116372,0.187055 0.331713,0.3401 0.478536,0.3401 0.318457,0 2.394754,1.578916 2.696464,2.050526 0.116372,0.1819 0.363508,0.33072 0.549192,0.33072 0.185684,0 0.617241,0.29766 0.959015,0.66146 0.341775,0.3638 0.732049,0.66146 0.867276,0.66146 0.135227,0 0.943367,0.56555 1.795865,1.25677 0.852499,0.69123 2.275667,1.79255 3.162597,2.4474 0.88693,0.65484 2.295658,1.7264 3.130507,2.38125 0.834849,0.65484 1.704366,1.30969 1.932261,1.45521 1.260768,0.80505 2.082127,1.40891 3.308902,2.43267 0.750814,0.62656 1.446199,1.1392 1.545301,1.1392 0.0991,0 0.794488,0.50602 1.545301,1.12448 0.750814,0.61846 1.553112,1.24354 1.782885,1.38906 0.229773,0.14552 0.97111,0.67248 1.647416,1.17102 0.953648,0.70299 1.164388,0.98508 0.938897,1.25677 -0.159913,0.19269 -0.406011,0.35034 -0.546884,0.35034 -0.140873,0 -0.883272,0.53578 -1.649775,1.19062 -0.766502,0.65485 -1.4837,1.19063 -1.593772,1.19063 -0.110072,0 -0.887309,0.59531 -1.727193,1.32291 -0.839884,0.72761 -1.612913,1.32292 -1.717841,1.32292 -0.104928,0 -0.771146,0.44649 -1.480484,0.99219 -0.709339,0.5457 -2.013877,1.527965 -2.898974,2.182805 -0.885097,0.65485 -2.004367,1.51805 -2.487267,1.91823 -0.4829,0.40018 -0.968508,0.72761 -1.079129,0.72761 -0.110621,0 -0.828267,0.53578 -1.59477,1.19062 -0.766503,0.65484 -1.469165,1.19063 -1.56147,1.19063 -0.09231,0 -0.870238,0.56554 -1.728737,1.25677 -1.575603,1.2686 -3.787294,2.93289 -5.643106,4.24643 -0.555217,0.39297 -1.710861,1.28005 -2.568097,1.97127 -0.857236,0.69123 -1.634134,1.25678 -1.726444,1.25678 -0.0923,0 -0.79496,0.53578 -1.56147,1.19062 -0.7665,0.65484 -1.47804,1.19063 -1.5812,1.19063 -0.26853,0 -2.0965,1.38904 -2.34822,1.78437 -0.11637,0.18276 -0.36351,0.33229 -0.54919,0.33229 -0.18569,0 -0.61724,0.29766 -0.95902,0.66146 -0.34177,0.3638 -0.73296,0.66146 -0.8693,0.66146 -0.13634,0 -0.85217,0.50601 -1.59074,1.12448 -0.73858,0.61846 -1.54895,1.24354 -1.80084,1.38906 -0.48993,0.28305 -2.21097,1.60464 -4.73763,3.63802 -0.8589,0.69123 -1.66517,1.25677 -1.79169,1.25677 -0.12653,0 -0.50969,0.29766 -0.85147,0.66146 -0.34177,0.3638 -0.77505,0.66146 -0.96285,0.66146 -0.18779,0 -0.46888,0.23812 -0.62465,0.52917 -0.15576,0.29104 -0.44302,0.52916 -0.63837,0.52916 -0.19534,0 -0.50339,0.1786 -0.68454,0.39688 -0.18116,0.21828 -0.43386,0.39687 -0.56157,0.39687 -0.13003,0 -0.23218,-5.70387 -0.23218,-12.96458 v -12.96458 h -5.27605 c -2.90183,0 -5.33817,0.10049 -5.41408,0.22333 -0.0759,0.12283 -1.7035,0.30256 -3.61685,0.3994 -1.91334,0.0968 -3.61443,0.26423 -3.78019,0.37198 -0.16576,0.10775 -1.25388,0.33325 -2.41804,0.5011 -3.37385,0.48647 -8.25319,1.85781 -11.14174,3.1314 -2.28319,1.00668 -6.39124,3.10877 -7.51139,3.84359 -0.65485,0.42957 -1.36922,0.86349 -1.5875,0.96427 -0.21828,0.10078 -1.00503,0.69802 -1.74832,1.32721 -0.74329,0.62918 -1.44756,1.14397 -1.56503,1.14397 -0.11747,0 -0.9976,0.724 -1.95585,1.6089 -0.95824,0.88489 -2.42063,2.22435 -3.24976,2.97656 -0.82912,0.75221 -1.51373,1.49079 -1.52135,1.64128 -0.008,0.15049 -0.6687,0.92033 -1.46907,1.71076 -0.80036,0.79042 -1.45521,1.54432 -1.45521,1.67534 0,0.13101 -0.71437,1.04398 -1.5875,2.02882 -0.87312,0.98484 -1.5875,1.87238 -1.5875,1.97232 0,0.0999 -0.4598,0.73885 -1.02179,1.4198 -0.56198,0.68095 -1.24659,1.65451 -1.52135,2.16346 -0.27476,0.50895 -0.62542,1.04473 -0.77925,1.19062 -0.4506,0.42737 -1.70469,2.19698 -1.70469,2.40545 0,0.10511 -0.29766,0.58136 -0.66146,1.05833 -0.3638,0.47697 -0.66146,0.94732 -0.66146,1.04523 0,0.0979 -0.35718,0.629 -0.79375,1.18021 -0.43656,0.5512 -0.79375,1.11113 -0.79375,1.24428 0,0.13314 -0.1748,0.4732 -0.38846,0.75567 -0.35523,0.46966 -0.38918,0.37347 -0.39687,-1.12444 z"
       id="path4" /></g></svg>
